<svg width="143" height="42" viewBox="0 0 143 42" fill="none" xmlns="http://www.w3.org/2000/svg">
<path d="M15.7929 9.5957V9.59675C15.776 9.62583 12.2955 15.6297 7.95067 22.96C3.59532 30.3081 0 36.1911 0 36.1911L12.3315 36.137L12.3323 36.1369L12.3297 36.1464C18.3172 36.0304 23.7182 32.0939 25.3119 26.1458C25.8102 24.2864 25.8853 22.4147 25.5964 20.626C24.8043 15.3587 20.9149 11.075 15.7929 9.5957Z" fill="black"/>
<path d="M22.6078 5.80957V5.81061C22.591 5.83969 19.1104 11.8435 14.7656 19.1739C10.4103 26.522 6.81494 32.4049 6.81494 32.4049L19.1464 32.3509L19.1472 32.3507L19.1446 32.3603C25.1321 32.2443 30.5331 28.3078 32.1269 22.3597C32.6251 20.5003 32.7003 18.6286 32.4113 16.8398C31.6192 11.5726 27.7299 7.28883 22.6078 5.80957Z" fill="#10F2C5"/>
<path d="M42.1855 30V11.7696H49.4848C50.826 11.7696 51.9446 11.9684 52.8407 12.366C53.7368 12.7637 54.4103 13.3155 54.8613 14.0217C55.3124 14.722 55.5379 15.5291 55.5379 16.443C55.5379 17.1551 55.3954 17.7812 55.1106 18.3212C54.8257 18.8553 54.4341 19.2944 53.9356 19.6386C53.443 19.9769 52.8793 20.2172 52.2443 20.3596V20.5377C52.9386 20.5673 53.5884 20.7632 54.1937 21.1252C54.805 21.4872 55.3005 21.9945 55.6803 22.6473C56.0601 23.2942 56.25 24.0656 56.25 24.9617C56.25 25.929 56.0096 26.7925 55.529 27.5521C55.0542 28.3057 54.351 28.9021 53.4193 29.3413C52.4876 29.7804 51.3393 30 49.9744 30H42.1855ZM46.0399 26.8489H49.1822C50.2563 26.8489 51.0396 26.6441 51.5322 26.2346C52.0247 25.8192 52.271 25.2673 52.271 24.579C52.271 24.0745 52.1493 23.6295 51.906 23.2437C51.6627 22.858 51.3156 22.5553 50.8645 22.3358C50.4195 22.1162 49.8883 22.0064 49.2712 22.0064H46.0399V26.8489ZM46.0399 19.3983H48.8973C49.4255 19.3983 49.8943 19.3063 50.3038 19.1223C50.7192 18.9324 51.0455 18.6654 51.2829 18.3212C51.5262 17.977 51.6479 17.5645 51.6479 17.0839C51.6479 16.4252 51.4135 15.894 50.9447 15.4905C50.4818 15.087 49.8231 14.8852 48.9685 14.8852H46.0399V19.3983ZM62.4788 11.7696V30H58.6868V11.7696H62.4788ZM71.6942 30.267C70.3114 30.267 69.1157 29.9733 68.1068 29.3858C67.1039 28.7924 66.3295 27.9675 65.7835 26.9112C65.2376 25.8489 64.9646 24.6175 64.9646 23.217C64.9646 21.8046 65.2376 20.5703 65.7835 19.514C66.3295 18.4517 67.1039 17.6269 68.1068 17.0394C69.1157 16.4459 70.3114 16.1492 71.6942 16.1492C73.0769 16.1492 74.2697 16.4459 75.2726 17.0394C76.2814 17.6269 77.0588 18.4517 77.6048 19.514C78.1507 20.5703 78.4237 21.8046 78.4237 23.217C78.4237 24.6175 78.1507 25.8489 77.6048 26.9112C77.0588 27.9675 76.2814 28.7924 75.2726 29.3858C74.2697 29.9733 73.0769 30.267 71.6942 30.267ZM71.712 27.3295C72.341 27.3295 72.8662 27.1515 73.2875 26.7954C73.7089 26.4334 74.0264 25.9409 74.24 25.3178C74.4596 24.6947 74.5693 23.9855 74.5693 23.1903C74.5693 22.3951 74.4596 21.686 74.24 21.0629C74.0264 20.4397 73.7089 19.9472 73.2875 19.5852C72.8662 19.2232 72.341 19.0422 71.712 19.0422C71.077 19.0422 70.5429 19.2232 70.1097 19.5852C69.6824 19.9472 69.359 20.4397 69.1394 21.0629C68.9258 21.686 68.819 22.3951 68.819 23.1903C68.819 23.9855 68.9258 24.6947 69.1394 25.3178C69.359 25.9409 69.6824 26.4334 70.1097 26.7954C70.5429 27.1515 71.077 27.3295 71.712 27.3295ZM87.0493 35.4121C85.8209 35.4121 84.7675 35.243 83.8893 34.9047C83.0169 34.5724 82.3226 34.1184 81.8063 33.5428C81.29 32.9672 80.9547 32.3203 80.8004 31.6023L84.3076 31.1305C84.4145 31.4035 84.5836 31.6587 84.815 31.896C85.0465 32.1334 85.3521 32.3233 85.7319 32.4657C86.1176 32.6141 86.5864 32.6883 87.1383 32.6883C87.9632 32.6883 88.6427 32.4865 89.1768 32.083C89.7168 31.6854 89.9868 31.0177 89.9868 30.0801V27.5788H89.8266C89.6604 27.9586 89.4112 28.3176 89.0789 28.6559C88.7465 28.9941 88.3193 29.2701 87.797 29.4837C87.2748 29.6973 86.6517 29.8042 85.9277 29.8042C84.9011 29.8042 83.9664 29.5668 83.1237 29.092C82.287 28.6114 81.6194 27.8785 81.1209 26.8934C80.6283 25.9023 80.3821 24.6502 80.3821 23.1369C80.3821 21.588 80.6343 20.2944 81.1387 19.2558C81.6431 18.2173 82.3137 17.4399 83.1504 16.9236C83.9931 16.4073 84.9159 16.1492 85.9188 16.1492C86.6843 16.1492 87.3253 16.2798 87.8415 16.5409C88.3578 16.796 88.7732 17.1165 89.0878 17.5022C89.4082 17.882 89.6545 18.2559 89.8266 18.6238H89.969V16.3272H93.7344V30.1335C93.7344 31.2967 93.4495 32.2699 92.8798 33.0532C92.3101 33.8366 91.5209 34.4241 90.512 34.8157C89.5091 35.2133 88.3549 35.4121 87.0493 35.4121ZM87.1294 26.9557C87.7407 26.9557 88.257 26.8043 88.6783 26.5017C89.1056 26.1931 89.432 25.754 89.6575 25.1843C89.8889 24.6086 90.0046 23.9202 90.0046 23.1191C90.0046 22.318 89.8919 21.6237 89.6664 21.0361C89.4409 20.4427 89.1145 19.9828 88.6872 19.6564C88.2599 19.33 87.7407 19.1668 87.1294 19.1668C86.5063 19.1668 85.9811 19.336 85.5539 19.6742C85.1266 20.0065 84.8032 20.4694 84.5836 21.0629C84.364 21.6563 84.2542 22.3417 84.2542 23.1191C84.2542 23.9084 84.364 24.5908 84.5836 25.1665C84.8091 25.7362 85.1325 26.1783 85.5539 26.4928C85.9811 26.8014 86.5063 26.9557 87.1294 26.9557ZM102.912 35.4121C101.683 35.4121 100.63 35.243 99.7518 34.9047C98.8795 34.5724 98.1851 34.1184 97.6688 33.5428C97.1526 32.9672 96.8173 32.3203 96.663 31.6023L100.17 31.1305C100.277 31.4035 100.446 31.6587 100.678 31.896C100.909 32.1334 101.215 32.3233 101.594 32.4657C101.98 32.6141 102.449 32.6883 103.001 32.6883C103.826 32.6883 104.505 32.4865 105.039 32.083C105.579 31.6854 105.849 31.0177 105.849 30.0801V27.5788H105.689C105.523 27.9586 105.274 28.3176 104.941 28.6559C104.609 28.9941 104.182 29.2701 103.66 29.4837C103.137 29.6973 102.514 29.8042 101.79 29.8042C100.764 29.8042 99.829 29.5668 98.9863 29.092C98.1495 28.6114 97.4819 27.8785 96.9834 26.8934C96.4909 25.9023 96.2446 24.6502 96.2446 23.1369C96.2446 21.588 96.4968 20.2944 97.0012 19.2558C97.5056 18.2173 98.1762 17.4399 99.013 16.9236C99.8557 16.4073 100.778 16.1492 101.781 16.1492C102.547 16.1492 103.188 16.2798 103.704 16.5409C104.22 16.796 104.636 17.1165 104.95 17.5022C105.271 17.882 105.517 18.2559 105.689 18.6238H105.832V16.3272H109.597V30.1335C109.597 31.2967 109.312 32.2699 108.742 33.0532C108.173 33.8366 107.383 34.4241 106.375 34.8157C105.372 35.2133 104.217 35.4121 102.912 35.4121ZM102.992 26.9557C103.603 26.9557 104.119 26.8043 104.541 26.5017C104.968 26.1931 105.294 25.754 105.52 25.1843C105.751 24.6086 105.867 23.9202 105.867 23.1191C105.867 22.318 105.754 21.6237 105.529 21.0361C105.303 20.4427 104.977 19.9828 104.55 19.6564C104.122 19.33 103.603 19.1668 102.992 19.1668C102.369 19.1668 101.844 19.336 101.416 19.6742C100.989 20.0065 100.666 20.4694 100.446 21.0629C100.227 21.6563 100.117 22.3417 100.117 23.1191C100.117 23.9084 100.227 24.5908 100.446 25.1665C100.672 25.7362 100.995 26.1783 101.416 26.4928C101.844 26.8014 102.369 26.9557 102.992 26.9557ZM118.846 30.267C117.439 30.267 116.229 29.9822 115.214 29.4125C114.205 28.8369 113.428 28.0239 112.882 26.9735C112.336 25.9172 112.063 24.668 112.063 23.2259C112.063 21.8195 112.336 20.5851 112.882 19.5229C113.428 18.4606 114.196 17.6328 115.187 17.0394C116.184 16.4459 117.353 16.1492 118.694 16.1492C119.596 16.1492 120.436 16.2946 121.213 16.5854C121.997 16.8702 122.679 17.3005 123.261 17.8761C123.848 18.4517 124.305 19.1757 124.632 20.0481C124.958 20.9145 125.121 21.9293 125.121 23.0924V24.1339H113.576V21.7839H121.552C121.552 21.2379 121.433 20.7543 121.196 20.3329C120.958 19.9116 120.629 19.5822 120.208 19.3449C119.792 19.1015 119.308 18.9799 118.757 18.9799C118.181 18.9799 117.671 19.1134 117.226 19.3805C116.786 19.6416 116.442 19.9947 116.193 20.4397C115.944 20.8789 115.816 21.3685 115.81 21.9085V24.1428C115.81 24.8193 115.935 25.4038 116.184 25.8964C116.439 26.3889 116.798 26.7687 117.261 27.0358C117.724 27.3028 118.273 27.4364 118.908 27.4364C119.329 27.4364 119.715 27.377 120.065 27.2583C120.415 27.1396 120.715 26.9616 120.964 26.7242C121.213 26.4869 121.403 26.1961 121.534 25.8519L125.041 26.0833C124.863 26.926 124.498 27.6619 123.946 28.2909C123.4 28.914 122.694 29.4006 121.828 29.7508C120.967 30.0949 119.973 30.267 118.846 30.267ZM136.364 24.1784V16.3272H140.156V30H136.515V27.5165H136.373C136.064 28.3176 135.551 28.9615 134.833 29.4481C134.121 29.9347 133.251 30.178 132.225 30.178C131.311 30.178 130.507 29.9703 129.812 29.5549C129.118 29.1395 128.575 28.549 128.183 27.7835C127.798 27.018 127.602 26.1011 127.596 25.0329V16.3272H131.388V24.3564C131.394 25.1635 131.61 25.8014 132.038 26.2703C132.465 26.7391 133.038 26.9735 133.756 26.9735C134.213 26.9735 134.64 26.8696 135.038 26.6619C135.435 26.4483 135.756 26.1338 135.999 25.7184C136.248 25.303 136.37 24.7896 136.364 24.1784Z" fill="white"/>
</svg>
